<svg width="392" height="398" viewBox="0 0 392 398" fill="none" xmlns="http://www.w3.org/2000/svg">
<path fill-rule="evenodd" clip-rule="evenodd" d="M371 122.5V186.625C371 233.845 332.72 272.125 285.5 272.125H242.75V357.625H29V314.875L48.9134 269.359C55.7671 271.161 62.9939 272.125 70.494 272.125C109.141 272.125 142.83 245.822 152.203 208.329L110.729 197.96C106.114 216.423 89.525 229.375 70.494 229.375C69.1399 229.375 67.804 229.311 66.4885 229.187C50.928 227.713 38.238 217.737 32.426 204.392C30.6917 200.41 29.5698 196.128 29.167 191.682C28.7599 187.189 29.0872 182.529 30.2588 177.843C30.2588 177.843 30.2587 177.843 30.2588 177.843L43.9348 123.138C53.4502 85.0764 87.6487 58.375 126.882 58.375H242.75L285.5 122.5H371ZM221.375 165.25C233.18 165.25 242.75 155.68 242.75 143.875C242.75 132.07 233.18 122.5 221.375 122.5C209.57 122.5 200 132.07 200 143.875C200 155.68 209.57 165.25 221.375 165.25Z" fill="#800000"/>
<circle cx="218.136" cy="135.455" r="38.8636" fill="white"/>
<circle cx="231.091" cy="135.455" r="20.7273" fill="black"/>
<path d="M194.148 283.369C187.496 283.034 182.376 277.369 182.711 270.718L186.813 189.378L210.902 190.593L206.8 271.932C206.464 278.584 200.8 283.705 194.148 283.369V283.369Z" fill="black"/>
<path d="M165.521 73.3103C195.966 48.5212 240.259 52.8282 264.489 82.5861C288.719 112.344 283.961 156.591 253.516 181.38C223.072 206.169 178.779 201.862 154.549 172.104C130.319 142.346 135.077 98.0994 165.521 73.3103Z" fill="white" fill-opacity="0.2" stroke="black" stroke-width="15"/>
</svg>
