<svg width="18" height="18" viewBox="0 0 18 18" fill="none" xmlns="http://www.w3.org/2000/svg">
<rect width="18" height="18" rx="2.5" fill="#9AA0A6"/>
<path d="M5.5 13.5C5.225 13.5 4.9895 13.4022 4.7935 13.2065C4.59783 13.0105 4.5 12.775 4.5 12.5V5.5C4.5 5.225 4.59783 4.9895 4.7935 4.7935C4.9895 4.59783 5.225 4.5 5.5 4.5H7.5C7.775 4.5 8.0105 4.59783 8.2065 4.7935C8.40217 4.9895 8.5 5.225 8.5 5.5V12.5C8.5 12.775 8.40217 13.0105 8.2065 13.2065C8.0105 13.4022 7.775 13.5 7.5 13.5H5.5ZM10.5 8C10.225 8 9.98967 7.902 9.794 7.706C9.598 7.51033 9.5 7.275 9.5 7V5.5C9.5 5.225 9.598 4.9895 9.794 4.7935C9.98967 4.59783 10.225 4.5 10.5 4.5H12.5C12.775 4.5 13.0105 4.59783 13.2065 4.7935C13.4022 4.9895 13.5 5.225 13.5 5.5V7C13.5 7.275 13.4022 7.51033 13.2065 7.706C13.0105 7.902 12.775 8 12.5 8H10.5ZM10.5 13.5C10.225 13.5 9.98967 13.4022 9.794 13.2065C9.598 13.0105 9.5 12.775 9.5 12.5V10C9.5 9.725 9.598 9.4895 9.794 9.2935C9.98967 9.09783 10.225 9 10.5 9H12.5C12.775 9 13.0105 9.09783 13.2065 9.2935C13.4022 9.4895 13.5 9.725 13.5 10V12.5C13.5 12.775 13.4022 13.0105 13.2065 13.2065C13.0105 13.4022 12.775 13.5 12.5 13.5H10.5Z" fill="white"/>
</svg>
