<svg width="18" height="18" viewBox="0 0 18 18" fill="none" xmlns="http://www.w3.org/2000/svg">
<rect width="18" height="18" rx="2.5" fill="#9575CD"/>
<path d="M5.40001 5.40002C5.08175 5.40002 4.77653 5.52645 4.55148 5.7515C4.32644 5.97654 4.20001 6.28176 4.20001 6.60002V7.20002H13.8V6.60002C13.8 6.28176 13.6736 5.97654 13.4485 5.7515C13.2235 5.52645 12.9183 5.40002 12.6 5.40002H5.40001Z" fill="white"/>
<path fill-rule="evenodd" clip-rule="evenodd" d="M13.8 8.40002H4.20001V11.4C4.20001 11.7183 4.32644 12.0235 4.55148 12.2486C4.77653 12.4736 5.08175 12.6 5.40001 12.6H12.6C12.9183 12.6 13.2235 12.4736 13.4485 12.2486C13.6736 12.0235 13.8 11.7183 13.8 11.4V8.40002ZM5.40001 10.8C5.40001 10.6409 5.46323 10.4883 5.57575 10.3758C5.68827 10.2632 5.84088 10.2 6.00001 10.2H6.60001C6.75914 10.2 6.91175 10.2632 7.02428 10.3758C7.1368 10.4883 7.20001 10.6409 7.20001 10.8C7.20001 10.9592 7.1368 11.1118 7.02428 11.2243C6.91175 11.3368 6.75914 11.4 6.60001 11.4H6.00001C5.84088 11.4 5.68827 11.3368 5.57575 11.2243C5.46323 11.1118 5.40001 10.9592 5.40001 10.8ZM8.40001 10.2C8.24088 10.2 8.08827 10.2632 7.97575 10.3758C7.86323 10.4883 7.80001 10.6409 7.80001 10.8C7.80001 10.9592 7.86323 11.1118 7.97575 11.2243C8.08827 11.3368 8.24088 11.4 8.40001 11.4H9.00001C9.15914 11.4 9.31175 11.3368 9.42428 11.2243C9.5368 11.1118 9.60001 10.9592 9.60001 10.8C9.60001 10.6409 9.5368 10.4883 9.42428 10.3758C9.31175 10.2632 9.15914 10.2 9.00001 10.2H8.40001Z" fill="white"/>
</svg>
