<svg width="18" height="18" viewBox="0 0 18 18" fill="none" xmlns="http://www.w3.org/2000/svg">
<rect width="18" height="18" rx="2.5" fill="#81C995"/>
<path fill-rule="evenodd" clip-rule="evenodd" d="M9.78001 3.62755C9.90181 3.66585 10.0082 3.74202 10.0838 3.84496C10.1593 3.94791 10.2 4.07226 10.2 4.19995V7.19995H12.6C12.7098 7.1999 12.8174 7.22996 12.9113 7.28684C13.0051 7.34373 13.0816 7.42527 13.1323 7.52259C13.1831 7.61992 13.2061 7.72929 13.199 7.83881C13.1919 7.94833 13.1549 8.0538 13.092 8.14375L8.89201 14.1437C8.81891 14.2485 8.71431 14.3271 8.59341 14.3683C8.47252 14.4095 8.34164 14.411 8.21983 14.3726C8.09801 14.3343 7.99161 14.2581 7.91611 14.1551C7.8406 14.0521 7.79993 13.9277 7.80001 13.7999V10.7999H5.40001C5.29026 10.8 5.1826 10.7699 5.08874 10.7131C4.99488 10.6562 4.91843 10.5746 4.8677 10.4773C4.81696 10.38 4.7939 10.2706 4.801 10.1611C4.80811 10.0516 4.84512 9.9461 4.90801 9.85615L9.10801 3.85615C9.18122 3.75162 9.28584 3.67316 9.40669 3.63215C9.52754 3.59115 9.65831 3.58975 9.78001 3.62815V3.62755Z" fill="white"/>
</svg>
