<svg width="18" height="18" viewBox="0 0 18 18" fill="none" xmlns="http://www.w3.org/2000/svg">
<rect width="18" height="18" rx="2.5" fill="#FFE082"/>
<path d="M9 10C9.26522 10 9.51957 9.89464 9.70711 9.70711C9.89464 9.51957 10 9.26522 10 9C10 8.73478 9.89464 8.48043 9.70711 8.29289C9.51957 8.10536 9.26522 8 9 8C8.73478 8 8.48043 8.10536 8.29289 8.29289C8.10536 8.48043 8 8.73478 8 9C8 9.26522 8.10536 9.51957 8.29289 9.70711C8.48043 9.89464 8.73478 10 9 10Z" fill="white"/>
<path fill-rule="evenodd" clip-rule="evenodd" d="M4.229 9C4.866 6.9715 6.761 5.5 9 5.5C11.239 5.5 13.134 6.9715 13.771 9C13.134 11.0285 11.239 12.5 9 12.5C6.761 12.5 4.866 11.0285 4.229 9ZM11 9C11 9.53043 10.7893 10.0391 10.4142 10.4142C10.0391 10.7893 9.53044 11 9 11C8.46957 11 7.96086 10.7893 7.58579 10.4142C7.21072 10.0391 7 9.53043 7 9C7 8.46957 7.21072 7.96086 7.58579 7.58579C7.96086 7.21071 8.46957 7 9 7C9.53044 7 10.0391 7.21071 10.4142 7.58579C10.7893 7.96086 11 8.46957 11 9Z" fill="white"/>
</svg>
