<svg width="18" height="18" viewBox="0 0 18 18" fill="none" xmlns="http://www.w3.org/2000/svg">
<rect width="18" height="18" rx="2.5" fill="#C58AF9"/>
<g clip-path="url(#clip0_451_72)">
<path d="M6.70831 4.41663C7.29859 4.41663 7.75873 4.67885 8.08873 5.20329C8.41873 5.72774 8.58359 6.29885 8.58331 6.91663C8.58331 7.20135 8.55373 7.47218 8.49456 7.72913C8.4354 7.98607 8.36776 8.21524 8.29165 8.41663L5.3229 9.01038C5.21873 8.80899 5.11109 8.52954 4.99998 8.17204C4.88887 7.81454 4.83331 7.39607 4.83331 6.91663C4.83331 6.20135 5.0104 5.60579 5.36456 5.12996C5.71873 4.65413 6.16665 4.41635 6.70831 4.41663ZM7.28123 11.5C6.78817 11.5 6.40456 11.3282 6.1304 10.9845C5.85623 10.6409 5.70165 10.2433 5.66665 9.79163L8.35415 9.24996C8.4097 9.36802 8.46179 9.50177 8.5104 9.65121C8.55901 9.80065 8.58331 9.9551 8.58331 10.1145C8.58331 10.5104 8.45998 10.8402 8.21331 11.1041C7.96665 11.368 7.65567 11.5 7.28123 11.5ZM11.2916 6.49996C11.8333 6.49996 12.2812 6.73788 12.6354 7.21371C12.9896 7.68954 13.1666 8.28496 13.1666 8.99996C13.1666 9.47913 13.1111 9.8976 13 10.2554C12.8889 10.6132 12.7812 10.8926 12.6771 11.0937L9.70831 10.5C9.63192 10.2986 9.56429 10.0694 9.5054 9.81246C9.44651 9.55552 9.41692 9.28468 9.41665 8.99996C9.41665 8.3819 9.58165 7.81079 9.91165 7.28663C10.2416 6.76246 10.7016 6.50024 11.2916 6.49996ZM10.7187 13.5833C10.3437 13.5833 10.0329 13.4513 9.78623 13.1875C9.53956 12.9236 9.41637 12.5937 9.41665 12.1979C9.41665 12.0382 9.44095 11.8837 9.48956 11.7345C9.53817 11.5854 9.59026 11.4516 9.64581 11.3333L12.3229 11.875C12.2882 12.3263 12.1354 12.724 11.8646 13.0679C11.5937 13.4118 11.2118 13.5836 10.7187 13.5833Z" fill="white"/>
</g>
<defs>
<clipPath id="clip0_451_72">
<rect width="10" height="10" fill="white" transform="translate(4 4)"/>
</clipPath>
</defs>
</svg>
