<svg width="18" height="18" viewBox="0 0 18 18" fill="none" xmlns="http://www.w3.org/2000/svg">
<rect width="18" height="18" rx="2.5" fill="#F28B82"/>
<path fill-rule="evenodd" clip-rule="evenodd" d="M13 8.00004C13.0001 8.46862 12.8905 8.93073 12.6799 9.34931C12.4693 9.7679 12.1635 10.1313 11.7872 10.4105C11.4108 10.6896 10.9743 10.8767 10.5126 10.9568C10.0509 11.0369 9.57688 11.0077 9.1285 10.8715L9 11L8.5 11.5L8 12H7V13H5V11L7.1285 8.87154C7.00372 8.45904 6.96928 8.02451 7.02752 7.59751C7.08576 7.17051 7.23531 6.76107 7.466 6.39706C7.69668 6.03305 8.00308 5.72301 8.36435 5.48805C8.72561 5.25308 9.13326 5.09871 9.55954 5.03544C9.98582 4.97217 10.4207 5.00148 10.8347 5.12138C11.2486 5.24128 11.6319 5.44896 11.9583 5.73027C12.2848 6.01158 12.5468 6.35993 12.7266 6.75161C12.9063 7.14328 12.9996 7.56909 13 8.00004ZM10 6.00004C9.86739 6.00004 9.74021 6.05272 9.64645 6.14648C9.55268 6.24025 9.5 6.36743 9.5 6.50004C9.5 6.63265 9.55268 6.75982 9.64645 6.85359C9.74021 6.94736 9.86739 7.00004 10 7.00004C10.2652 7.00004 10.5196 7.10539 10.7071 7.29293C10.8946 7.48047 11 7.73482 11 8.00004C11 8.13265 11.0527 8.25982 11.1464 8.35359C11.2402 8.44736 11.3674 8.50004 11.5 8.50004C11.6326 8.50004 11.7598 8.44736 11.8536 8.35359C11.9473 8.25982 12 8.13265 12 8.00004C12 7.46961 11.7893 6.9609 11.4142 6.58582C11.0391 6.21075 10.5304 6.00004 10 6.00004Z" fill="white"/>
</svg>
