<svg width="18" height="18" viewBox="0 0 18 18" fill="none" xmlns="http://www.w3.org/2000/svg">
<rect width="18" height="18" rx="2.5" fill="#F2A982"/>
<path d="M8.4 5.525C8.4 5.3062 8.48692 5.09635 8.64164 4.94164C8.79635 4.78692 9.0062 4.7 9.225 4.7C9.4438 4.7 9.65365 4.78692 9.80836 4.94164C9.96308 5.09635 10.05 5.3062 10.05 5.525V5.8C10.05 5.94587 10.1079 6.08576 10.2111 6.18891C10.3142 6.29205 10.4541 6.35 10.6 6.35H12.25C12.3959 6.35 12.5358 6.40795 12.6389 6.51109C12.7421 6.61424 12.8 6.75413 12.8 6.9V8.55C12.8 8.69587 12.7421 8.83576 12.6389 8.93891C12.5358 9.04205 12.3959 9.1 12.25 9.1H11.975C11.7562 9.1 11.5464 9.18692 11.3916 9.34164C11.2369 9.49635 11.15 9.7062 11.15 9.925C11.15 10.1438 11.2369 10.3536 11.3916 10.5084C11.5464 10.6631 11.7562 10.75 11.975 10.75H12.25C12.3959 10.75 12.5358 10.8079 12.6389 10.9111C12.7421 11.0142 12.8 11.1541 12.8 11.3V12.95C12.8 13.0959 12.7421 13.2358 12.6389 13.3389C12.5358 13.4421 12.3959 13.5 12.25 13.5H10.6C10.4541 13.5 10.3142 13.4421 10.2111 13.3389C10.1079 13.2358 10.05 13.0959 10.05 12.95V12.675C10.05 12.4562 9.96308 12.2464 9.80836 12.0916C9.65365 11.9369 9.4438 11.85 9.225 11.85C9.0062 11.85 8.79635 11.9369 8.64164 12.0916C8.48692 12.2464 8.4 12.4562 8.4 12.675V12.95C8.4 13.0959 8.34205 13.2358 8.23891 13.3389C8.13576 13.4421 7.99587 13.5 7.85 13.5H6.2C6.05413 13.5 5.91424 13.4421 5.81109 13.3389C5.70795 13.2358 5.65 13.0959 5.65 12.95V11.3C5.65 11.1541 5.59205 11.0142 5.48891 10.9111C5.38576 10.8079 5.24587 10.75 5.1 10.75H4.825C4.6062 10.75 4.39635 10.6631 4.24164 10.5084C4.08692 10.3536 4 10.1438 4 9.925C4 9.7062 4.08692 9.49635 4.24164 9.34164C4.39635 9.18692 4.6062 9.1 4.825 9.1H5.1C5.24587 9.1 5.38576 9.04205 5.48891 8.93891C5.59205 8.83576 5.65 8.69587 5.65 8.55V6.9C5.65 6.75413 5.70795 6.61424 5.81109 6.51109C5.91424 6.40795 6.05413 6.35 6.2 6.35H7.85C7.99587 6.35 8.13576 6.29205 8.23891 6.18891C8.34205 6.08576 8.4 5.94587 8.4 5.8V5.525Z" fill="white"/>
</svg>
