<svg width="18" height="18" viewBox="0 0 18 18" fill="none" xmlns="http://www.w3.org/2000/svg">
<rect width="18" height="18" rx="2.5" fill="#F28B82"/>
<g clip-path="url(#clip0_451_78)">
<path d="M13.5 12V12.5C13.5 13.05 13.05 13.5 12.5 13.5H5.5C4.945 13.5 4.5 13.05 4.5 12.5V5.5C4.5 4.95 4.945 4.5 5.5 4.5H12.5C13.05 4.5 13.5 4.95 13.5 5.5V6H9C8.445 6 8 6.45 8 7V11C8 11.55 8.445 12 9 12H13.5ZM9 11H14V7H9V11ZM11 9.75C10.585 9.75 10.25 9.415 10.25 9C10.25 8.585 10.585 8.25 11 8.25C11.415 8.25 11.75 8.585 11.75 9C11.75 9.415 11.415 9.75 11 9.75Z" fill="white"/>
</g>
<defs>
<clipPath id="clip0_451_78">
<rect width="12" height="12" fill="white" transform="translate(3 3)"/>
</clipPath>
</defs>
</svg>
