<svg width="704" height="280" viewBox="0 0 704 280" fill="none" xmlns="http://www.w3.org/2000/svg">
<path d="M587.5 104.5L582.5 109.5L545.5 96L496.5 78.5L473.5 64.5L471 47.5L476 46.5H501.5L534 55L572.5 82.5L587.5 104.5Z" fill="white"/>
<path d="M223.5 206L256.5 189.5L251.5 229.5L272 246L274 273H220L204 256L201 229.5L223.5 206Z" fill="white"/>
<path d="M134.5 193H114.5L122 151L139 118L159.5 92.5L194 66L243 48.5L296.5 46L352 64.5L384.5 85.5L369.5 103L310.5 97L200.5 100L134.5 193Z" fill="white"/>
<path d="M535.5 70C578 86 592 120.5 592 121L595.5 128L600.5 157L592 169L559.5 199.5L535.5 271L266 273.5C266 255 233.5 254.5 233.5 229C233.5 208.6 248.5 196.5 256 193L292.5 171.5L338.5 137L379 94.5L428 14L446 3.5L464.5 19.5L472 47.5L475 60H494C496.167 63.3333 497.5 69.3478 512 72.5C528.5 76.087 531.5 71.6667 535.5 70Z" fill="#B71C1C"/>
<path d="M518.907 192.813C540.507 162.813 580.24 158.647 597.407 160.313H604.907L640.407 178.313L650.407 191.813L656.907 226.813L646.907 254.313L632.907 270.813L498.907 272.313C496.573 258.313 497.307 222.813 518.907 192.813Z" fill="white"/>
<path d="M442 26L436 34.5V74.5L458 72.5L456 55L448 30.5L442 26Z" fill="#9E9E9E"/>
<path d="M85 118.5L125 150V151L117.5 161.5L102 154L78 135.5L68 105V84.5L72.5 66.5L89 53L91 59C87.5 63.5 80.4 72.6 80 73C79.6 73.4 77.5 80.8333 76.5 84.5L85 118.5Z" fill="white"/>
<path d="M83.5 59C48.5 102 97.9999 150 124.5 153L132.5 129L110.5 127L93 117.5L82.5 97L85.5 73.5L98 64L105.5 69L110.5 83.5H120V67.5L110.5 56.5L95.5 52.5L83.5 59Z" fill="#B71C1C"/>
<path d="M118 163.5C99.167 155.666 62.3871 133.5 66.0001 91.4999C69.2259 54 96.0004 47 111.5 55.9997C123.867 63.1802 124.612 85.5 114.5 85.5C102.5 85.5 114.178 61.0606 96.0004 64.4997C77.5 68 69.5 133 132 129" stroke="black" stroke-width="8" stroke-linecap="round"/>
<path d="M208.5 75C147.3 101.8 120.333 170.167 114.5 201L162 212.5L211.5 218L223.5 205.5L288.5 176.5L337.5 140.5L374 101.5C336.4 66.3 290.667 59.5 272.5 60.5C272 65 273.114 76.145 246.5 80.5C219 85 212 79 208.5 75Z" fill="#B71C1C"/>
<rect x="496" y="136" width="12" height="45" rx="6" fill="#D9D9D9"/>
<rect x="566" y="139" width="12" height="20" rx="6" fill="#D9D9D9"/>
<ellipse cx="501.5" cy="130.5" rx="13.5" ry="21.5" fill="black"/>
<ellipse cx="572.5" cy="130.5" rx="13.5" ry="21.5" fill="black"/>
<ellipse cx="506" cy="126.5" rx="6" ry="7.5" fill="#D9D9D9"/>
<ellipse cx="576" cy="126.5" rx="6" ry="7.5" fill="#D9D9D9"/>
<ellipse cx="500.5" cy="140.5" rx="3.5" ry="4.5" fill="#D9D9D9"/>
<ellipse cx="570.5" cy="140.5" rx="3.5" ry="4.5" fill="#D9D9D9"/>
<path d="M70 196L60.5 224L72 236.5L95.5 255V275H74.5H38.5L25 264.5L18.5 246L28 219.5L44.5 204.5L70 196Z" fill="white"/>
<rect x="575" y="186" width="62" height="40" rx="20" fill="black"/>
<path d="M614 220.5L607.5 241L602.5 220.5H614Z" fill="black"/>
<path d="M53.5 238.5C45.1 220.1 61.3333 201.833 70.5 195L99 184L117 174.5L114.5 194L130 195L189.5 197L212.5 216L201 237L203.5 251.5L224.5 274L84.5 276.5C85.5 252 64 261.5 53.5 238.5Z" fill="#B71C1C"/>
<rect x="588" y="192" width="36" height="16" rx="8" fill="#D9D9D9"/>
<path d="M449 71.5C449.8 47.9 442 33.3333 438 29L422 74L449 71.5Z" fill="white"/>
<path d="M113.032 203.27C113.653 172.253 123.194 142.07 140.515 116.332C157.836 90.5936 182.204 70.389 210.705 58.1341C239.206 45.8792 270.633 42.0926 301.229 47.2272C331.825 52.3618 360.295 66.2002 383.234 87.0877" stroke="black" stroke-width="8" stroke-linecap="round"/>
<path d="M4 276L699.5 269" stroke="black" stroke-width="8" stroke-linecap="round"/>
<path d="M608 217.5C645.2 217.5 649.167 242.5 646.5 255L636.5 269.5L50 276.5L29.5 267.5L20 251L23 224.5L44.5 207C34.5 244.5 66.1666 256 80 256H176C180.418 256 183.903 252.365 184.939 248.07C188.662 232.641 202.541 222.799 210 219.5L211.517 215L213.234 215C214.406 211.172 217.019 205.216 217.034 213.5C217.076 236.211 227.413 257.5 263 257.5C334.5 257.5 341.5 210.5 359 210.5C376.5 210.5 394 257.5 466.5 257.5C539 257.5 561.5 217.5 608 217.5Z" fill="black" fill-opacity="0.26"/>
<path d="M51.5 275.5C38.5 275.5 15.6503 267.099 20.5 238C27.5 196 70.5 203.5 116.5 173.5" stroke="black" stroke-width="8" stroke-linecap="round"/>
<path d="M537 36.5L516.5 49L542.5 59.5L547 53.5L557.5 40L562 40.5L560.5 60.5V72.5L570.5 81.5L573.5 72.5L574.5 47L570.5 27L559.5 20.5L546 29.5L537 36.5Z" fill="#B71C1C"/>
<path d="M558.5 42L545 58.5L558 69.5L560.5 43L558.5 42Z" fill="white"/>
<path d="M514.5 49.5002C553.5 28 552.956 19.8037 563.5 22.0002C575.5 24.5 575 57.0001 571 80.5001" stroke="black" stroke-width="8" stroke-linecap="round"/>
<path d="M541.5 59C546.833 51.5 557.8 37.5 561 37.5C564.2 37.5 561.667 59.6667 560 71.5" stroke="black" stroke-width="8" stroke-linecap="round"/>
<path d="M444 26.5C435 26.5 429 57.4999 421 74.5L459.5 72.5C459 44 453 26.5 444 26.5Z" stroke="black" stroke-width="8" stroke-linecap="round"/>
<path d="M472.5 46.5C512.333 42.6666 593.5 59.3 599.5 156.5C646.5 163.5 679.5 224.5 632 269.5" stroke="black" stroke-width="8" stroke-linecap="round"/>
<path d="M231 274C210.5 272.5 184.8 239.2 216 212C246 185.846 268.5 192.5 302.5 164" stroke="black" stroke-width="8" stroke-linecap="round"/>
<path d="M472 87.5C479.5 41 462.5 4.5 445 4.5C430.501 4.5 421.045 30.2397 399.5 64C384.638 87.2888 359 117.5 338 140L361 152L335 170L365 191.5" stroke="black" stroke-width="8" stroke-linecap="round"/>
</svg>
