<svg width="20" height="20" viewBox="0 0 20 20" fill="none" xmlns="http://www.w3.org/2000/svg">
<path d="M16 4.99997C16.2652 4.99997 16.5196 4.89462 16.7071 4.70708C16.8946 4.51954 17 4.26519 17 3.99997C17 3.73476 16.8946 3.4804 16.7071 3.29287C16.5196 3.10533 16.2652 2.99997 16 2.99997L8.732 2.99997C8.55646 2.69596 8.30398 2.4435 7.99996 2.26798C7.69593 2.09246 7.35106 2.00006 7 2.00006C6.64894 2.00006 6.30407 2.09246 6.00004 2.26798C5.69602 2.4435 5.44354 2.69596 5.268 2.99997L4 2.99997C3.73478 2.99997 3.48043 3.10533 3.29289 3.29287C3.10536 3.4804 3 3.73476 3 3.99997C3 4.26519 3.10536 4.51954 3.29289 4.70708C3.48043 4.89462 3.73478 4.99997 4 4.99997L5.268 4.99997C5.44354 5.30399 5.69602 5.55644 6.00004 5.73196C6.30407 5.90748 6.64894 5.99988 7 5.99988C7.35106 5.99988 7.69593 5.90748 7.99996 5.73196C8.30398 5.55644 8.55646 5.30399 8.732 4.99997L16 4.99997ZM16 11C16.2652 11 16.5196 10.8946 16.7071 10.7071C16.8946 10.5195 17 10.2652 17 9.99997C17 9.73476 16.8946 9.4804 16.7071 9.29287C16.5196 9.10533 16.2652 8.99997 16 8.99997L14.732 8.99997C14.5565 8.69596 14.304 8.44351 14 8.26799C13.6959 8.09246 13.3511 8.00006 13 8.00006C12.6489 8.00006 12.3041 8.09246 12 8.26799C11.696 8.44351 11.4435 8.69596 11.268 8.99997L4 8.99997C3.73478 8.99997 3.48043 9.10533 3.29289 9.29287C3.10536 9.4804 3 9.73476 3 9.99997C3 10.2652 3.10536 10.5195 3.29289 10.7071C3.48043 10.8946 3.73478 11 4 11L11.268 11C11.4435 11.304 11.696 11.5564 12 11.732C12.3041 11.9075 12.6489 11.9999 13 11.9999C13.3511 11.9999 13.6959 11.9075 14 11.732C14.304 11.5564 14.5565 11.304 14.732 11L16 11ZM17 16C17 16.2652 16.8946 16.5195 16.7071 16.7071C16.5196 16.8946 16.2652 17 16 17L8.732 17C8.55646 17.304 8.30398 17.5564 7.99996 17.732C7.69593 17.9075 7.35106 17.9999 7 17.9999C6.64894 17.9999 6.30407 17.9075 6.00004 17.732C5.69602 17.5564 5.44354 17.304 5.268 17L4 17C3.73478 17 3.48043 16.8946 3.29289 16.7071C3.10536 16.5195 3 16.2652 3 16C3 15.7348 3.10536 15.4804 3.29289 15.2929C3.48043 15.1053 3.73478 15 4 15L5.268 15C5.44354 14.696 5.69602 14.4435 6.00004 14.268C6.30407 14.0925 6.64894 14.0001 7 14.0001C7.35106 14.0001 7.69593 14.0925 7.99996 14.268C8.30398 14.4435 8.55646 14.696 8.732 15L16 15C16.2652 15 16.5196 15.1053 16.7071 15.2929C16.8946 15.4804 17 15.7348 17 16Z" fill="#636363"/>
</svg>
