<svg width="704" height="280" viewBox="0 0 704 280" fill="none" xmlns="http://www.w3.org/2000/svg">
<path d="M587.5 104L582.5 109L545.5 95.5L496.5 78L473.5 64L471 47L476 46H501.5L534 54.5L572.5 82L587.5 104Z" fill="white"/>
<path d="M223.5 205.5L256.5 189L251.5 229L272 245.5L274 272.5H220L204 255.5L201 229L223.5 205.5Z" fill="white"/>
<path d="M134.5 192.5H114.5L122 150.5L139 117.5L159.5 92L194 65.5L243 48L296.5 45.5L352 64L384.5 85L369.5 102.5L310.5 96.5L200.5 99.5L134.5 192.5Z" fill="white"/>
<path d="M535.5 69.5C578 85.5 592 120 592 120.5L595.5 127.5L600.5 156.5L592 168.5L559.5 199L535.5 270.5L266 273C266 254.5 233.5 254 233.5 228.5C233.5 208.1 248.5 196 256 192.5L292.5 171L338.5 136.5L379 94L428 13.5L446 3L464.5 19L472 47L475 59.5H494C496.167 62.8333 497.5 68.8478 512 72C528.5 75.587 531.5 71.1667 535.5 69.5Z" fill="#B71C1C"/>
<path d="M518.907 192.313C540.507 162.313 580.24 158.147 597.407 159.813H604.907L640.407 177.813L650.407 191.313L656.907 226.313L646.907 253.813L632.907 270.313L498.907 271.813C496.573 257.813 497.307 222.313 518.907 192.313Z" fill="white"/>
<path d="M442 25.5L436 34V74L458 72L456 54.5L448 30L442 25.5Z" fill="#9E9E9E"/>
<path d="M85 118L125 149.5V150.5L117.5 161L102 153.5L78 135L68 104.5V84L72.5 66L89 52.5L91 58.5C87.5 63 80.4 72.1 80 72.5C79.6 72.9 77.5 80.3333 76.5 84L85 118Z" fill="white"/>
<path d="M83.5 58.5C48.5 101.5 97.9999 149.5 124.5 152.5L132.5 128.5L110.5 126.5L93 117L82.5 96.5L85.5 73L98 63.5L105.5 68.5L110.5 83H120V67L110.5 56L95.5 52L83.5 58.5Z" fill="#B71C1C"/>
<path d="M118 163C99.167 155.166 62.3871 133 66.0001 90.9999C69.2259 53.5 96.0004 46.5 111.5 55.4997C123.867 62.6802 124.612 85 114.5 85C102.5 85 114.178 60.5606 96.0004 63.9997C77.5 67.5 69.5 132.5 132 128.5" stroke="black" stroke-width="8" stroke-linecap="round"/>
<path d="M208.5 74.5C147.3 101.3 120.333 169.667 114.5 200.5L162 212L211.5 217.5L223.5 205L288.5 176L337.5 140L374 101C336.4 65.8 290.667 59 272.5 60C272 64.5 273.114 75.645 246.5 80C219 84.5 212 78.5 208.5 74.5Z" fill="#B71C1C"/>
<path d="M70 195.5L60.5 223.5L72 236L95.5 254.5V274.5H74.5H38.5L25 264L18.5 245.5L28 219L44.5 204L70 195.5Z" fill="white"/>
<rect x="575" y="185.5" width="62" height="40" rx="20" fill="black"/>
<path d="M614 220L607.5 240.5L602.5 220H614Z" fill="black"/>
<path d="M53.5 238C45.1 219.6 61.3333 201.333 70.5 194.5L99 183.5L117 174L114.5 193.5L130 194.5L189.5 196.5L212.5 215.5L201 236.5L203.5 251L224.5 273.5L84.5 276C85.5 251.5 64 261 53.5 238Z" fill="#B71C1C"/>
<rect x="588" y="191.5" width="36" height="16" rx="8" fill="#D9D9D9"/>
<path d="M449 71C449.8 47.4 442 32.8333 438 28.5L422 73.5L449 71Z" fill="white"/>
<path d="M113.032 202.77C113.653 171.753 123.194 141.57 140.515 115.832C157.836 90.0937 182.204 69.8891 210.705 57.6342C239.206 45.3793 270.633 41.5927 301.229 46.7273C331.825 51.8619 360.295 65.7004 383.234 86.5878" stroke="black" stroke-width="8" stroke-linecap="round"/>
<path d="M4 275.5L699.5 268.5" stroke="black" stroke-width="8" stroke-linecap="round"/>
<path d="M608 217C645.2 217 649.167 242 646.5 254.5L636.5 269L50 276L29.5 267L20 250.5L23 224L44.5 206.5C34.5 244 66.1666 255.5 80 255.5H176C180.418 255.5 183.903 251.865 184.939 247.57C188.662 232.141 202.541 222.299 210 219L211.517 214.5L213.234 214.5C214.406 210.672 217.019 204.716 217.034 213C217.076 235.711 227.413 257 263 257C334.5 257 341.5 210 359 210C376.5 210 394 257 466.5 257C539 257 561.5 217 608 217Z" fill="black" fill-opacity="0.26"/>
<path d="M51.5 275C38.5 275 15.6503 266.599 20.5 237.5C27.5 195.5 70.5 203 116.5 173" stroke="black" stroke-width="8" stroke-linecap="round"/>
<path d="M537 36L516.5 48.5L542.5 59L547 53L557.5 39.5L562 40L560.5 60V72L570.5 81L573.5 72L574.5 46.5L570.5 26.5L559.5 20L546 29L537 36Z" fill="#B71C1C"/>
<path d="M558.5 41.5L545 58L558 69L560.5 42.5L558.5 41.5Z" fill="white"/>
<path d="M514.5 49.0001C553.5 27.4999 552.956 19.3036 563.5 21.5001C575.5 23.9999 575 56.5 571 80" stroke="black" stroke-width="8" stroke-linecap="round"/>
<path d="M541.5 58.5C546.833 51 557.8 37 561 37C564.2 37 561.667 59.1667 560 71" stroke="black" stroke-width="8" stroke-linecap="round"/>
<path d="M444 26C435 26 429 56.9999 421 74L459.5 72C459 43.5 453 26 444 26Z" stroke="black" stroke-width="8" stroke-linecap="round"/>
<path d="M472.5 46.0001C512.333 42.1668 593.5 58.8001 599.5 156C646.5 163 679.5 224 632 269" stroke="black" stroke-width="8" stroke-linecap="round"/>
<path d="M231 273.5C210.5 272 184.8 238.7 216 211.5C246 185.346 268.5 192 302.5 163.5" stroke="black" stroke-width="8" stroke-linecap="round"/>
<path d="M472 87C479.5 40.5 462.5 4 445 4C430.501 4 421.045 29.7397 399.5 63.5C384.638 86.7888 359 117 338 139.5L361 151.5L335 169.5L365 191" stroke="black" stroke-width="8" stroke-linecap="round"/>
<path d="M555 132.5C559.667 139.833 573.5 150.5 587.5 137.5" stroke="black" stroke-width="8" stroke-linecap="round"/>
<path d="M482.5 137.5C490.5 144.667 510.6 153.9 527 133.5" stroke="black" stroke-width="8" stroke-linecap="round"/>
</svg>
