<svg width="18" height="18" viewBox="0 0 18 18" fill="none" xmlns="http://www.w3.org/2000/svg">
<rect width="18" height="18" rx="2.5" fill="#91E1A2"/>
<path fill-rule="evenodd" clip-rule="evenodd" d="M13.0242 6.17579C13.1367 6.28831 13.1999 6.4409 13.1999 6.59999C13.1999 6.75909 13.1367 6.91168 13.0242 7.02419L8.2242 11.8242C8.11168 11.9367 7.9591 11.9999 7.8 11.9999C7.6409 11.9999 7.48832 11.9367 7.3758 11.8242L4.9758 9.42419C4.86651 9.31103 4.80603 9.15947 4.8074 9.00215C4.80876 8.84484 4.87186 8.69435 4.98311 8.5831C5.09435 8.47186 5.24484 8.40876 5.40216 8.40739C5.55948 8.40602 5.71104 8.4665 5.8242 8.57579L7.8 10.5516L12.1758 6.17579C12.2883 6.06331 12.4409 6.00012 12.6 6.00012C12.7591 6.00012 12.9117 6.06331 13.0242 6.17579Z" fill="#04481C"/>
</svg>
