<svg width="18" height="18" viewBox="0 0 18 18" fill="none" xmlns="http://www.w3.org/2000/svg">
<rect width="18" height="18" rx="2.5" fill="#D6EB60"/>
<path fill-rule="evenodd" clip-rule="evenodd" d="M5.57582 5.57575C5.68834 5.46327 5.84092 5.40008 6.00002 5.40008C6.15912 5.40008 6.3117 5.46327 6.42422 5.57575L9.00002 8.15155L11.5758 5.57575C11.6312 5.51845 11.6974 5.47274 11.7706 5.44129C11.8438 5.40984 11.9225 5.39329 12.0022 5.3926C12.0818 5.39191 12.1609 5.40709 12.2346 5.43726C12.3083 5.46743 12.3753 5.51198 12.4317 5.56831C12.488 5.62465 12.5325 5.69164 12.5627 5.76538C12.5929 5.83912 12.6081 5.91812 12.6074 5.99779C12.6067 6.07746 12.5901 6.15619 12.5587 6.22939C12.5272 6.3026 12.4815 6.3688 12.4242 6.42415L9.84842 8.99995L12.4242 11.5758C12.5335 11.6889 12.594 11.8405 12.5926 11.9978C12.5913 12.1551 12.5282 12.3056 12.4169 12.4168C12.3057 12.5281 12.1552 12.5912 11.9979 12.5926C11.8405 12.5939 11.689 12.5334 11.5758 12.4242L9.00002 9.84835L6.42422 12.4242C6.31106 12.5334 6.1595 12.5939 6.00218 12.5926C5.84486 12.5912 5.69437 12.5281 5.58313 12.4168C5.47188 12.3056 5.40878 12.1551 5.40741 11.9978C5.40605 11.8405 5.46652 11.6889 5.57582 11.5758L8.15162 8.99995L5.57582 6.42415C5.46334 6.31163 5.40015 6.15905 5.40015 5.99995C5.40015 5.84085 5.46334 5.68827 5.57582 5.57575Z" fill="#8D7D05"/>
</svg>
