<svg width="408" height="408" viewBox="0 0 408 408" fill="none" xmlns="http://www.w3.org/2000/svg">
<g clip-path="url(#clip0_3_9)">
<path fill-rule="evenodd" clip-rule="evenodd" d="M356 121V177.25C356 218.671 322.421 252.25 281 252.25H243.5V327.25H56V289.75L73.4679 249.824C79.4799 251.404 85.8193 252.25 92.3983 252.25C126.3 252.25 155.85 229.178 164.073 196.288L127.692 187.193C123.644 203.389 109.092 214.75 92.3983 214.75C91.2104 214.75 90.0386 214.694 88.8847 214.585C75.2351 213.292 64.1035 204.541 59.0053 192.835C57.4839 189.342 56.4999 185.586 56.1465 181.686C55.7894 177.745 56.0765 173.657 57.1042 169.546C57.1042 169.546 57.1042 169.546 57.1042 169.546L69.1007 121.56C77.4476 88.1723 107.446 64.75 141.861 64.75H243.5L281 121H356ZM224.75 158.5C235.105 158.5 243.5 150.105 243.5 139.75C243.5 129.395 235.105 121 224.75 121C214.395 121 206 129.395 206 139.75C206 150.105 214.395 158.5 224.75 158.5Z" fill="#800000"/>
<path d="M167.202 327V297.909H179.219C181.397 297.909 183.277 298.335 184.858 299.188C186.449 300.03 187.675 301.209 188.537 302.724C189.399 304.23 189.83 305.982 189.83 307.98C189.83 309.988 189.389 311.744 188.509 313.25C187.637 314.746 186.392 315.906 184.773 316.73C183.153 317.554 181.231 317.966 179.006 317.966H171.591V312.426H177.699C178.759 312.426 179.645 312.241 180.355 311.872C181.075 311.503 181.619 310.987 181.989 310.324C182.358 309.652 182.543 308.87 182.543 307.98C182.543 307.08 182.358 306.304 181.989 305.651C181.619 304.988 181.075 304.476 180.355 304.116C179.635 303.757 178.75 303.577 177.699 303.577H174.233V327H167.202ZM210.895 297.909H217.912V316.673C217.912 318.842 217.396 320.731 216.364 322.341C215.331 323.941 213.892 325.182 212.045 326.062C210.199 326.934 208.054 327.369 205.611 327.369C203.139 327.369 200.98 326.934 199.134 326.062C197.287 325.182 195.852 323.941 194.83 322.341C193.807 320.731 193.295 318.842 193.295 316.673V297.909H200.327V316.062C200.327 317.066 200.545 317.961 200.98 318.747C201.425 319.533 202.045 320.149 202.841 320.594C203.636 321.039 204.56 321.261 205.611 321.261C206.662 321.261 207.58 321.039 208.366 320.594C209.162 320.149 209.782 319.533 210.227 318.747C210.672 317.961 210.895 317.066 210.895 316.062V297.909ZM222.319 327V297.909H234.336C236.514 297.909 238.394 298.335 239.975 299.188C241.566 300.03 242.792 301.209 243.654 302.724C244.516 304.23 244.947 305.982 244.947 307.98C244.947 309.988 244.506 311.744 243.626 313.25C242.754 314.746 241.509 315.906 239.89 316.73C238.271 317.554 236.348 317.966 234.123 317.966H226.708V312.426H232.816C233.877 312.426 234.762 312.241 235.472 311.872C236.192 311.503 236.737 310.987 237.106 310.324C237.475 309.652 237.66 308.87 237.66 307.98C237.66 307.08 237.475 306.304 237.106 305.651C236.737 304.988 236.192 304.476 235.472 304.116C234.753 303.757 233.867 303.577 232.816 303.577H229.35V327H222.319Z" fill="white"/>
<circle cx="221.909" cy="132.364" r="34.0909" fill="white"/>
<circle cx="233.273" cy="132.364" r="18.1818" fill="black"/>
<path d="M199.508 264.06C193.566 263.76 188.992 258.7 189.291 252.758L192.956 180.095L214.475 181.181L210.81 253.843C210.511 259.785 205.45 264.36 199.508 264.06Z" fill="black"/>
<path d="M174.441 77.0303C201.304 55.1572 240.366 58.9698 261.725 85.2015C283.084 111.433 278.901 150.457 252.038 172.33C225.175 194.203 186.113 190.391 164.754 164.159C143.395 137.928 147.578 98.9034 174.441 77.0303Z" fill="white" fill-opacity="0.2" stroke="black" stroke-width="15"/>
</g>
<path d="M249.202 327V297.909H261.332C263.51 297.909 265.333 298.217 266.801 298.832C268.278 299.448 269.386 300.31 270.125 301.418C270.873 302.526 271.247 303.809 271.247 305.267C271.247 306.375 271.015 307.365 270.551 308.236C270.087 309.098 269.448 309.812 268.634 310.381C267.819 310.949 266.877 311.347 265.807 311.574V311.858C266.981 311.915 268.065 312.232 269.06 312.81C270.063 313.387 270.868 314.192 271.474 315.224C272.08 316.247 272.384 317.459 272.384 318.861C272.384 320.423 271.986 321.82 271.19 323.051C270.395 324.273 269.244 325.239 267.739 325.949C266.233 326.65 264.405 327 262.256 327H249.202ZM256.233 321.332H260.58C262.104 321.332 263.226 321.044 263.946 320.466C264.675 319.888 265.04 319.083 265.04 318.051C265.04 317.303 264.865 316.659 264.514 316.119C264.164 315.57 263.667 315.149 263.023 314.855C262.379 314.552 261.607 314.401 260.707 314.401H256.233V321.332ZM256.233 309.869H260.125C260.892 309.869 261.574 309.741 262.17 309.486C262.767 309.23 263.231 308.861 263.562 308.378C263.903 307.895 264.074 307.312 264.074 306.631C264.074 305.655 263.728 304.888 263.037 304.33C262.346 303.771 261.413 303.491 260.239 303.491H256.233V309.869ZM282.057 327H274.5L284.315 297.909H293.676L303.491 327H295.935L289.102 305.239H288.875L282.057 327ZM281.048 315.551H296.844V320.892H281.048V315.551ZM306.624 327V297.909H318.641C320.819 297.909 322.698 298.302 324.28 299.088C325.871 299.865 327.097 300.982 327.959 302.44C328.821 303.889 329.251 305.608 329.251 307.597C329.251 309.614 328.811 311.328 327.93 312.739C327.05 314.14 325.8 315.21 324.18 315.949C322.561 316.678 320.643 317.043 318.428 317.043H310.828V311.503H317.121C318.181 311.503 319.067 311.366 319.777 311.091C320.497 310.807 321.041 310.381 321.411 309.812C321.78 309.235 321.964 308.496 321.964 307.597C321.964 306.697 321.78 305.954 321.411 305.366C321.041 304.77 320.497 304.325 319.777 304.031C319.057 303.728 318.172 303.577 317.121 303.577H313.655V327H306.624ZM323.001 313.705L330.246 327H322.575L315.473 313.705H323.001ZM333.108 327V297.909H340.139V310.21H340.523L350.139 297.909H358.42L348.108 310.892L358.605 327H350.196L342.952 315.565L340.139 319.116V327H333.108Z" fill="#800000"/>
<defs>
<clipPath id="clip0_3_9">
<rect width="300" height="300" fill="white" transform="translate(56 46)"/>
</clipPath>
</defs>
</svg>
