<svg width="16" height="16" viewBox="0 0 16 16" fill="none" xmlns="http://www.w3.org/2000/svg">
<g clip-path="url(#clip0_251_44)">
<path d="M8.00001 15.3C7.81112 15.3 7.6529 15.2362 7.52535 15.1087C7.39735 14.9807 7.33335 14.8222 7.33335 14.6333V13.9667C5.94446 13.8111 4.7529 13.2362 3.75868 12.242C2.76401 11.2473 2.1889 10.0556 2.03335 8.66668H1.36668C1.17779 8.66668 1.01935 8.60268 0.891346 8.47468C0.76379 8.34712 0.700012 8.1889 0.700012 8.00001C0.700012 7.81112 0.76379 7.65268 0.891346 7.52468C1.01935 7.39712 1.17779 7.33335 1.36668 7.33335H2.03335C2.1889 5.94446 2.76401 4.75268 3.75868 3.75801C4.7529 2.76379 5.94446 2.1889 7.33335 2.03335V1.36668C7.33335 1.17779 7.39735 1.01935 7.52535 0.891346C7.6529 0.76379 7.81112 0.700012 8.00001 0.700012C8.1889 0.700012 8.34735 0.76379 8.47535 0.891346C8.6029 1.01935 8.66668 1.17779 8.66668 1.36668V2.03335C10.0556 2.1889 11.2473 2.76379 12.242 3.75801C13.2362 4.75268 13.8111 5.94446 13.9667 7.33335H14.6333C14.8222 7.33335 14.9807 7.39712 15.1087 7.52468C15.2362 7.65268 15.3 7.81112 15.3 8.00001C15.3 8.1889 15.2362 8.34712 15.1087 8.47468C14.9807 8.60268 14.8222 8.66668 14.6333 8.66668H13.9667C13.8111 10.0556 13.2362 11.2473 12.242 12.242C11.2473 13.2362 10.0556 13.8111 8.66668 13.9667V14.6333C8.66668 14.8222 8.6029 14.9807 8.47535 15.1087C8.34735 15.2362 8.1889 15.3 8.00001 15.3ZM8.00001 12.6667C9.2889 12.6667 10.3889 12.2111 11.3 11.3C12.2111 10.3889 12.6667 9.2889 12.6667 8.00001C12.6667 6.71112 12.2111 5.61112 11.3 4.70001C10.3889 3.7889 9.2889 3.33335 8.00001 3.33335C6.71112 3.33335 5.61112 3.7889 4.70001 4.70001C3.7889 5.61112 3.33335 6.71112 3.33335 8.00001C3.33335 9.2889 3.7889 10.3889 4.70001 11.3C5.61112 12.2111 6.71112 12.6667 8.00001 12.6667ZM8.00001 10.6667C7.26668 10.6667 6.6389 10.4056 6.11668 9.88335C5.59446 9.36112 5.33335 8.73335 5.33335 8.00001C5.33335 7.26668 5.59446 6.6389 6.11668 6.11668C6.6389 5.59446 7.26668 5.33335 8.00001 5.33335C8.73335 5.33335 9.36112 5.59446 9.88335 6.11668C10.4056 6.6389 10.6667 7.26668 10.6667 8.00001C10.6667 8.73335 10.4056 9.36112 9.88335 9.88335C9.36112 10.4056 8.73335 10.6667 8.00001 10.6667Z" fill="#636363"/>
</g>
<defs>
<clipPath id="clip0_251_44">
<rect width="16" height="16" fill="white"/>
</clipPath>
</defs>
</svg>
